<svg width="701" height="701" viewBox="0 0 701 701" fill="none" xmlns="http://www.w3.org/2000/svg">
<path d="M317.927 665.974V639.84C182.878 624.943 75.6561 517.747 60.7797 382.68H34.625C49.7543 531.88 168.726 650.867 317.927 665.974Z" fill="#D271FE" fill-opacity="0.3"/>
<path d="M26.281 382.68H0.175781C15.4901 551.067 149.548 685.134 317.935 700.452V674.344C164.147 659.158 41.4711 536.486 26.281 382.68Z" fill="#D271FE" fill-opacity="0.3"/>
<path d="M665.712 382.679H639.559C624.681 517.747 517.459 624.943 382.41 639.839V665.974C531.611 650.867 650.584 531.88 665.712 382.679Z" fill="#D271FE" fill-opacity="0.3"/>
<path d="M674.063 382.68C658.875 536.486 536.201 659.158 382.41 674.343V700.452C550.798 685.134 684.857 551.067 700.172 382.68H674.063Z" fill="#D271FE" fill-opacity="0.3"/>
<path d="M674.066 318.224H700.172C684.857 149.837 550.798 15.7695 382.41 0.452026V26.5602C536.201 41.7461 658.875 164.417 674.066 318.224Z" fill="#D271FE" fill-opacity="0.3"/>
<path d="M382.41 34.9295V61.064C517.459 75.9604 624.681 183.156 639.559 318.224H665.712C650.584 169.023 531.611 50.0364 382.41 34.9295Z" fill="#D271FE" fill-opacity="0.3"/>
<path d="M317.928 61.064V34.9295C168.727 50.0364 49.7543 169.023 34.625 318.224H60.7807C75.6571 183.156 182.879 75.9604 317.928 61.064Z" fill="#D271FE" fill-opacity="0.3"/>
<path d="M350.173 94.6477C209.115 94.6477 94.3585 209.397 94.3585 350.465C94.3585 491.507 209.115 606.257 350.173 606.257C491.228 606.257 605.985 491.507 605.985 350.465C605.985 209.397 491.228 94.6477 350.173 94.6477ZM350.173 614.573C204.528 614.573 86.0391 496.087 86.0391 350.465C86.0391 204.818 204.528 86.3311 350.173 86.3311C495.815 86.3311 614.304 204.818 614.304 350.465C614.304 496.087 495.815 614.573 350.173 614.573Z" fill="#D271FE" fill-opacity="0.3"/>
<path d="M350.168 531.38C250.395 531.38 169.227 450.213 169.227 350.466C169.227 348.15 171.087 346.281 173.385 346.281C175.683 346.281 177.543 348.15 177.543 350.466C177.543 445.634 254.982 523.064 350.168 523.064C352.463 523.064 354.327 524.932 354.327 527.222C354.327 529.538 352.463 531.38 350.168 531.38Z" fill="#D271FE" fill-opacity="0.3"/>
<path d="M350.174 261.034C300.86 261.034 260.741 301.143 260.741 350.465C260.741 399.76 300.86 439.869 350.174 439.869C399.485 439.869 439.604 399.76 439.604 350.465C439.604 301.143 399.485 261.034 350.174 261.034ZM350.174 448.212C296.272 448.212 252.422 404.339 252.422 350.465C252.422 296.564 296.272 252.691 350.174 252.691C404.073 252.691 447.923 296.564 447.923 350.465C447.923 404.339 404.073 448.212 350.174 448.212Z" fill="#D271FE" fill-opacity="0.3"/>
<path d="M350.165 313.013C329.52 313.013 312.728 329.805 312.728 350.465C312.728 371.099 329.52 387.89 350.165 387.89C370.804 387.89 387.598 371.099 387.598 350.465C387.598 329.805 370.804 313.013 350.165 313.013ZM350.165 396.207C324.933 396.207 304.406 375.678 304.406 350.465C304.406 325.225 324.933 304.697 350.165 304.697C375.394 304.697 395.918 325.225 395.918 350.465C395.918 375.678 375.394 396.207 350.165 396.207Z" fill="#D271FE" fill-opacity="0.3"/>
<mask id="mask0_735_4" style="mask-type:luminance" maskUnits="userSpaceOnUse" x="329" y="329" width="42" height="43">
<path d="M370.969 350.466C370.969 361.941 361.657 371.257 350.171 371.257C338.683 371.257 329.371 361.941 329.371 350.466C329.371 338.964 338.683 329.648 350.171 329.648C361.657 329.648 370.969 338.964 370.969 350.466Z" fill="white"/>
</mask>
<g mask="url(#mask0_735_4)">
<path d="M370.969 350.466C370.969 361.941 361.657 371.257 350.171 371.257C338.683 371.257 329.371 361.941 329.371 350.466C329.371 338.964 338.683 329.648 350.171 329.648C361.657 329.648 370.969 338.964 370.969 350.466Z" fill="#D271FE" fill-opacity="0.3"/>
</g>
<path d="M350.177 487.033C347.879 487.033 346.016 485.164 346.016 482.875V444.028C346.016 441.739 347.879 439.87 350.177 439.87C352.472 439.87 354.335 441.739 354.335 444.028V482.875C354.335 485.164 352.472 487.033 350.177 487.033Z" fill="#D271FE" fill-opacity="0.3"/>
<path d="M350.177 261.034C347.879 261.034 346.016 259.165 346.016 256.876V218.029C346.016 215.739 347.879 213.871 350.177 213.871C352.472 213.871 354.335 215.739 354.335 218.029V256.876C354.335 259.165 352.472 261.034 350.177 261.034Z" fill="#D271FE" fill-opacity="0.3"/>
<path d="M256.58 354.624H217.756C215.461 354.624 213.598 352.755 213.598 350.465C213.598 348.149 215.461 346.281 217.756 346.281H256.58C258.877 346.281 260.738 348.149 260.738 350.465C260.738 352.755 258.877 354.624 256.58 354.624Z" fill="#D271FE" fill-opacity="0.3"/>
<path d="M482.58 354.624H443.756C441.461 354.624 439.598 352.755 439.598 350.465C439.598 348.149 441.461 346.281 443.756 346.281H482.58C484.877 346.281 486.738 348.149 486.738 350.465C486.738 352.755 484.877 354.624 482.58 354.624Z" fill="#D271FE" fill-opacity="0.3"/>
<path d="M256.535 448.239C255.469 448.239 254.406 447.845 253.593 447.029C251.969 445.397 251.969 442.765 253.593 441.133L281.046 413.683C282.668 412.051 285.302 412.051 286.926 413.683C288.553 415.315 288.553 417.946 286.926 419.578L259.475 447.029C258.665 447.845 257.599 448.239 256.535 448.239Z" fill="#D271FE" fill-opacity="0.3"/>
<path d="M419.286 287.222L413.406 281.326L465.01 229.742H582.594V238.058H468.458L419.286 287.222Z" fill="#D271FE" fill-opacity="0.3"/>
<path d="M283.986 288.432C282.92 288.432 281.857 288.038 281.046 287.222L253.593 259.771C251.969 258.14 251.969 255.508 253.593 253.876C255.217 252.27 257.854 252.27 259.475 253.876L286.926 281.326C288.553 282.958 288.553 285.59 286.926 287.222C286.116 288.038 285.05 288.432 283.986 288.432Z" fill="#D271FE" fill-opacity="0.3"/>
<path d="M584.36 467.609H461.444L413.403 419.578C411.777 417.946 411.777 415.314 413.403 413.682C415.025 412.051 417.662 412.051 419.283 413.682L464.892 459.293H584.36C586.657 459.293 588.518 461.161 588.518 463.451C588.518 465.741 586.657 467.609 584.36 467.609Z" fill="#D271FE" fill-opacity="0.3"/>
<path d="M350.214 141.336L350.075 155.838L346.832 155.785L346.972 141.31L350.214 141.336Z" fill="#D271FE" fill-opacity="0.3"/>
<path d="M338.689 141.468L339.347 155.943L336.107 156.075L335.449 141.599L338.689 141.468Z" fill="#D271FE" fill-opacity="0.3"/>
<path d="M327.168 142.206L328.626 156.628L325.402 156.97L323.941 142.548L327.168 142.206Z" fill="#D271FE" fill-opacity="0.3"/>
<path d="M315.75 143.599L318.008 157.917L314.805 158.417L312.547 144.1L315.75 143.599Z" fill="#D271FE" fill-opacity="0.3"/>
<path d="M304.415 145.626L307.463 159.786L304.294 160.47L301.246 146.311L304.415 145.626Z" fill="#D271FE" fill-opacity="0.3"/>
<path d="M293.197 148.285L297.024 162.26L293.897 163.102L290.07 149.127L293.197 148.285Z" fill="#D271FE" fill-opacity="0.3"/>
<path d="M282.159 151.548L286.754 165.286L283.677 166.313L279.082 152.574L282.159 151.548Z" fill="#D271FE" fill-opacity="0.3"/>
<path d="M271.318 155.418L276.664 168.866L273.65 170.077L268.305 156.602L271.318 155.418Z" fill="#D271FE" fill-opacity="0.3"/>
<path d="M260.703 159.865L266.783 173.024L263.838 174.366L257.758 161.233L260.703 159.865Z" fill="#D271FE" fill-opacity="0.3"/>
<path d="M250.31 164.918L257.106 177.735L254.245 179.235L247.449 166.444L250.31 164.918Z" fill="#D271FE" fill-opacity="0.3"/>
<path d="M240.296 170.498L247.779 182.921L245.005 184.579L237.52 172.183L240.296 170.498Z" fill="#D271FE" fill-opacity="0.3"/>
<path d="M230.535 176.657L238.686 188.632L236.007 190.448L227.855 178.473L230.535 176.657Z" fill="#D271FE" fill-opacity="0.3"/>
<path d="M221.143 183.315L229.942 194.843L227.362 196.791L218.566 185.289L221.143 183.315Z" fill="#D271FE" fill-opacity="0.3"/>
<path d="M212.126 190.5L221.541 201.501L219.074 203.606L209.66 192.605L212.126 190.5Z" fill="#D271FE" fill-opacity="0.3"/>
<path d="M203.539 198.133L213.54 208.608L211.193 210.845L201.191 200.37L203.539 198.133Z" fill="#D271FE" fill-opacity="0.3"/>
<path d="M195.375 206.238L205.937 216.161L203.715 218.529L193.156 208.607L195.375 206.238Z" fill="#D271FE" fill-opacity="0.3"/>
<path d="M187.654 214.792L198.744 224.109L196.657 226.609L185.566 217.266L187.654 214.792Z" fill="#D271FE" fill-opacity="0.3"/>
<path d="M180.416 223.74L192.005 232.452L190.057 235.031L178.469 226.346L180.416 223.74Z" fill="#D271FE" fill-opacity="0.3"/>
<path d="M173.687 233.083L185.738 241.137L183.938 243.848L171.887 235.794L173.687 233.083Z" fill="#D271FE" fill-opacity="0.3"/>
<path d="M167.485 242.795L179.96 250.164L178.31 252.954L165.832 245.585L167.485 242.795Z" fill="#D271FE" fill-opacity="0.3"/>
<path d="M161.814 252.849L174.684 259.508L173.192 262.376L160.324 255.718L161.814 252.849Z" fill="#D271FE" fill-opacity="0.3"/>
<path d="M156.73 263.166L169.948 269.114L168.616 272.062L155.398 266.14L156.73 263.166Z" fill="#D271FE" fill-opacity="0.3"/>
<path d="M152.218 273.773L165.743 278.958L164.583 281.985L151.055 276.8L152.218 273.773Z" fill="#D271FE" fill-opacity="0.3"/>
<path d="M148.3 284.589L162.093 289.037L161.096 292.116L147.305 287.695L148.3 284.589Z" fill="#D271FE" fill-opacity="0.3"/>
<path d="M145.003 295.616L159.021 299.275L158.197 302.433L144.18 298.748L145.003 295.616Z" fill="#D271FE" fill-opacity="0.3"/>
<path d="M142.291 306.829L156.487 309.724L155.837 312.883L141.641 309.988L142.291 306.829Z" fill="#D271FE" fill-opacity="0.3"/>
<path d="M140.227 318.093L154.549 320.304L154.055 323.515L139.734 321.304L140.227 318.093Z" fill="#D271FE" fill-opacity="0.3"/>
<path d="M138.741 329.542L153.172 330.91L152.867 334.121L138.441 332.779L138.741 329.542Z" fill="#D271FE" fill-opacity="0.3"/>
<path d="M137.893 341.017L152.377 341.57L152.25 344.833L137.77 344.254L137.893 341.017Z" fill="#D271FE" fill-opacity="0.3"/>
<path d="M137.68 352.57L152.171 352.307L152.224 355.57L137.735 355.807L137.68 352.57Z" fill="#D271FE" fill-opacity="0.3"/>
<path d="M138.102 364.072L152.556 363.046L152.788 366.257L138.333 367.31L138.102 364.072Z" fill="#D271FE" fill-opacity="0.3"/>
<path d="M139.148 375.521L153.521 373.705L153.932 376.916L139.559 378.758L139.148 375.521Z" fill="#D271FE" fill-opacity="0.3"/>
<path d="M140.84 386.916L155.089 384.284L155.679 387.469L141.427 390.101L140.84 386.916Z" fill="#D271FE" fill-opacity="0.3"/>
<path d="M143.16 398.181L157.244 394.786L158.007 397.918L143.921 401.339L143.16 398.181Z" fill="#D271FE" fill-opacity="0.3"/>
<path d="M146.109 409.34L159.982 405.155L160.919 408.26L147.049 412.445L146.109 409.34Z" fill="#D271FE" fill-opacity="0.3"/>
<path d="M149.648 420.288L163.266 415.34L164.377 418.367L150.756 423.315L149.648 420.288Z" fill="#D271FE" fill-opacity="0.3"/>
<path d="M153.801 431.027L167.129 425.342L168.403 428.316L155.077 434.001L153.801 431.027Z" fill="#D271FE" fill-opacity="0.3"/>
<path d="M158.527 441.501L171.521 435.106L172.955 438.001L159.962 444.423L158.527 441.501Z" fill="#D271FE" fill-opacity="0.3"/>
<path d="M163.855 451.766L176.475 444.633L178.07 447.475L165.45 454.582L163.855 451.766Z" fill="#D271FE" fill-opacity="0.3"/>
<path d="M169.699 461.661L181.911 453.871L183.659 456.582L171.444 464.399L169.699 461.661Z" fill="#D271FE" fill-opacity="0.3"/>
<path d="M176.07 471.215L187.838 462.767L189.73 465.399L177.965 473.847L176.07 471.215Z" fill="#D271FE" fill-opacity="0.3"/>
<path d="M182.984 480.427L194.27 471.347L196.302 473.873L185.016 482.953L182.984 480.427Z" fill="#D271FE" fill-opacity="0.3"/>
<path d="M190.395 489.27L201.164 479.585L203.333 481.98L192.563 491.691L190.395 489.27Z" fill="#D271FE" fill-opacity="0.3"/>
<path d="M198.254 497.665L208.479 487.401L210.777 489.691L200.552 499.955L198.254 497.665Z" fill="#D271FE" fill-opacity="0.3"/>
<path d="M206.574 505.614L216.22 494.823L218.639 496.981L208.993 507.772L206.574 505.614Z" fill="#D271FE" fill-opacity="0.3"/>
<path d="M215.305 513.115L224.343 501.771L226.875 503.798L217.839 515.115L215.305 513.115Z" fill="#D271FE" fill-opacity="0.3"/>
<path d="M224.461 520.116L232.859 508.299L235.502 510.194L227.101 521.984L224.461 520.116Z" fill="#D271FE" fill-opacity="0.3"/>
<path d="M233.992 526.616L241.725 514.352L244.467 516.089L236.735 528.327L233.992 526.616Z" fill="#D271FE" fill-opacity="0.3"/>
<path d="M243.832 532.538L250.875 519.878L253.71 521.457L246.667 534.117L243.832 532.538Z" fill="#D271FE" fill-opacity="0.3"/>
<path d="M254.016 537.933L260.345 524.905L263.262 526.326L256.932 539.354L254.016 537.933Z" fill="#D271FE" fill-opacity="0.3"/>
<path d="M264.477 542.749L270.072 529.405L273.062 530.642L267.466 544.012L264.477 542.749Z" fill="#D271FE" fill-opacity="0.3"/>
<path d="M275.223 547.013L280.065 533.354L283.121 534.433L278.276 548.092L275.223 547.013Z" fill="#D271FE" fill-opacity="0.3"/>
<path d="M286.117 550.618L290.202 536.722L293.31 537.643L289.228 551.54L286.117 550.618Z" fill="#D271FE" fill-opacity="0.3"/>
<path d="M297.258 553.672L300.569 539.565L303.727 540.302L300.413 554.409L297.258 553.672Z" fill="#D271FE" fill-opacity="0.3"/>
<path d="M308.508 556.067L311.045 541.802L314.24 542.381L311.7 556.646L308.508 556.067Z" fill="#D271FE" fill-opacity="0.3"/>
<path d="M319.836 557.857L321.573 543.46L324.792 543.855L323.052 558.251L319.836 557.857Z" fill="#D271FE" fill-opacity="0.3"/>
<path d="M331.238 559.041L332.225 544.565L335.46 544.802L334.476 559.251L331.238 559.041Z" fill="#D271FE" fill-opacity="0.3"/>
<path d="M342.762 559.594L342.951 545.092L346.194 545.145L346.002 559.62L342.762 559.594Z" fill="#D271FE" fill-opacity="0.3"/>
<path d="M354.241 559.514L353.633 545.039L356.873 544.881L357.481 559.383L354.241 559.514Z" fill="#D271FE" fill-opacity="0.3"/>
<path d="M652.493 318.224H607.635C605.34 318.224 603.477 316.355 603.477 314.039C603.477 311.75 605.34 309.881 607.635 309.881H652.493C654.791 309.881 656.654 311.75 656.654 314.039C656.654 316.355 654.791 318.224 652.493 318.224Z" fill="#D271FE" fill-opacity="0.3"/>
<path d="M652.497 390.996H607.639C605.344 390.996 603.48 389.154 603.48 386.838C603.48 384.548 605.344 382.679 607.639 382.679H652.497C654.795 382.679 656.658 384.548 656.658 386.838C656.658 389.154 654.795 390.996 652.497 390.996Z" fill="#D271FE" fill-opacity="0.3"/>
<path d="M90.9601 318.224H46.1022C43.8032 318.224 41.9414 316.355 41.9414 314.039C41.9414 311.75 43.8032 309.881 46.1022 309.881H90.9601C93.2551 309.881 95.1185 311.75 95.1185 314.039C95.1185 316.355 93.2551 318.224 90.9601 318.224Z" fill="#D271FE" fill-opacity="0.3"/>
<path d="M90.9601 390.996H46.1022C43.8032 390.996 41.9414 389.154 41.9414 386.838C41.9414 384.548 43.8032 382.679 46.1022 382.679H90.9601C93.2551 382.679 95.1185 384.548 95.1185 386.838C95.1185 389.154 93.2551 390.996 90.9601 390.996Z" fill="#D271FE" fill-opacity="0.3"/>
<mask id="mask1_735_4" style="mask-type:luminance" maskUnits="userSpaceOnUse" x="0" y="0" width="318" height="319">
<path d="M146.959 63.6693H100.587L46.102 118.149L46.102 174.103C21.0698 217.186 4.91538 266.034 0.171875 318.224H26.2771C41.4672 164.417 164.14 41.7459 317.931 26.56V0.451782C254.583 6.21558 196.097 28.7971 146.959 63.6693Z" fill="white"/>
</mask>
<g mask="url(#mask1_735_4)">
<path d="M146.959 63.6693H100.587L46.102 118.149L46.102 174.103C21.0698 217.186 4.91538 266.034 0.171875 318.224H26.2771C41.4672 164.417 164.14 41.7459 317.931 26.56V0.451782C254.583 6.21558 196.097 28.7971 146.959 63.6693Z" fill="#D271FE" fill-opacity="0.3"/>
</g>
</svg>
